<svg xmlns="http://www.w3.org/2000/svg" width="253.346" height="300" viewBox="0 0 253.346 300">
  <g id="Grupo_2" data-name="Grupo 2" transform="translate(-499 -218)">
    <g id="Grupo_1" data-name="Grupo 1" transform="translate(499 218)">
      <path id="Caminho_1" data-name="Caminho 1" d="M651.35,1223.282h10.134v-26.626h13.08v-9.214h-13.08V1168H678.16v-9.214H651.35Z" transform="translate(-619.573 -998.946)" fill="#fff"/>
      <path id="Caminho_2" data-name="Caminho 2" d="M789.737,1206.375c0,4.605-2.026,6.356-5.25,6.356s-5.253-1.751-5.253-6.356V1171.55c0-4.605,2.026-6.356,5.253-6.356s5.25,1.751,5.25,6.356Zm-5.25-50.4c-9.95,0-15.386,5.9-15.386,16.215v33.536c0,10.32,5.436,16.215,15.386,16.215s15.384-5.9,15.384-16.215v-33.536C799.87,1161.878,794.437,1155.98,784.486,1155.98Z" transform="translate(-706.459 -996.873)" fill="#fff"/>
      <path id="Caminho_3" data-name="Caminho 3" d="M931.635,1180.994c0,5.159-2.3,6.818-6.081,6.818h-3.961V1168h4.883c3.594,0,5.159,2.026,5.159,6.634v6.356Zm10.228,24.506c0-6.726-1.659-11.518-6.726-13.636v-.183c4.516-2.12,6.632-6.356,6.632-12.991v-5.067c0-9.947-4.511-14.833-15.017-14.833H911.46v64.492h10.134v-26.257h3.5c4.605,0,6.632,2.21,6.632,8.2v10.136c0,5.253.37,6.265.923,7.924h10.317c-1.012-2.4-1.1-4.7-1.1-7.832Z" transform="translate(-811.503 -998.946)" fill="#fff"/>
      <path id="Caminho_4" data-name="Caminho 4" d="M1041.51,1168H1052.1v55.279h10.134V1168h10.6v-9.214H1041.51Z" transform="translate(-907.464 -998.946)" fill="#fff"/>
      <path id="Caminho_5" data-name="Caminho 5" d="M1205.531,1168v-9.214H1177.89v64.492h27.641v-9.214h-17.5v-18.886h13.911v-9.214h-13.911V1168Z" transform="translate(-1008.096 -998.946)" fill="#fff"/>
      <path id="Caminho_6" data-name="Caminho 6" d="M913.27,728.623l14.173-14.157V670.06Z" transform="translate(-812.839 -638.322)" fill="#fdb92e"/>
      <path id="Caminho_7" data-name="Caminho 7" d="M967.34,670.06v44.406l14.175,14.157Z" transform="translate(-852.736 -638.322)" fill="#f58634"/>
      <path id="Caminho_8" data-name="Caminho 8" d="M738.676,553.011c-1.429,0-2.325.765-2.325,2.784v3.022H732.11v-2.742c0-4.516,2.283-7.1,6.689-7.1s6.687,2.579,6.687,7.1c0,3.751-1.384,6.776-5.544,11.169-2.653,2.823-3.387,4.155-3.387,5.646a3.136,3.136,0,0,0,.039.605h8.485v4.031H732.11V574.06c0-3.145,1.14-5.523,4.485-8.993,3.429-3.586,4.406-5.806,4.406-8.828,0-2.54-.9-3.227-2.325-3.227Z" transform="translate(-679.164 -548.98)" fill="#fff"/>
      <path id="Caminho_9" data-name="Caminho 9" d="M874.588,571.035c0,2.018.9,2.784,2.325,2.784s2.325-.765,2.325-2.784V555.8c0-2.018-.9-2.784-2.325-2.784s-2.325.765-2.325,2.784ZM870.1,556.076c0-4.516,2.409-7.1,6.813-7.1s6.81,2.579,6.81,7.1v14.679c0,4.516-2.406,7.1-6.81,7.1s-6.813-2.579-6.813-7.1Z" transform="translate(-780.984 -548.98)" fill="#fff"/>
      <path id="Caminho_10" data-name="Caminho 10" d="M1018.861,556.238c0-2.54-.9-3.227-2.325-3.227s-2.325.765-2.325,2.784v1.814h-4.241v-1.533c0-4.516,2.283-7.1,6.689-7.1s6.689,2.579,6.689,7.1v.726c0,3.025-.98,4.878-3.14,5.767v.081c2.241.967,3.14,3.022,3.14,5.887v2.218c0,4.516-2.286,7.1-6.689,7.1s-6.689-2.579-6.689-7.1v-2.338h4.241v2.619c0,2.018.9,2.784,2.325,2.784s2.325-.687,2.325-3.185v-2.218c0-2.621-.9-3.591-2.936-3.591h-1.51v-4.031h1.754c1.675,0,2.692-.726,2.692-2.983Z" transform="translate(-884.191 -548.98)" fill="#fff"/>
      <path id="Caminho_11" data-name="Caminho 11" d="M1153.387,571.035c0,2.018.9,2.784,2.325,2.784s2.323-.765,2.323-2.784V555.8c0-2.018-.9-2.784-2.323-2.784s-2.325.765-2.325,2.784Zm-4.487-14.959c0-4.516,2.406-7.1,6.812-7.1s6.81,2.579,6.81,7.1v14.679c0,4.516-2.406,7.1-6.81,7.1s-6.812-2.579-6.812-7.1Z" transform="translate(-986.705 -548.98)" fill="#fff"/>
      <path id="Caminho_12" data-name="Caminho 12" d="M782.881,861.719a4.785,4.785,0,0,0,.144-.548,4.942,4.942,0,0,0-1.046-4.113c-.309-.393-.608-.813-.907-1.229a16.075,16.075,0,0,0-4.624-4.763,68.807,68.807,0,0,0-13.926-6.862,72.951,72.951,0,0,1-10.854-4.265,6.986,6.986,0,0,0-5.269-3.324,4.494,4.494,0,0,1-2.823-1.353,8.377,8.377,0,0,0-6.668-4c-.713-.021-1.224-.144-2.666-2.273a8.948,8.948,0,0,0-7.67-4.162c-.024,0-.05.005-.076.008-.042,0-.081-.008-.126-.008a12.251,12.251,0,0,0-2.233.218,8.88,8.88,0,0,1-1.552.144,9.753,9.753,0,0,1-2.558-.372c.042-.018.081-.034.121-.052,3.484-1.51,5.017-3.832,4.561-6.9-.385-2.579-2.094-5.649-8.037-5.714a5.053,5.053,0,0,0-2.55-.724c-.034,0-.071.005-.107.005s-.058-.005-.092-.005c-.131,0-.265.016-.4.026a4.775,4.775,0,0,0-.181-.679,4.333,4.333,0,0,0-1.486-7.963,16.981,16.981,0,0,0-2.338-.22c-.249-.01-.564-.021-.781-.045l-.186-.165a7.423,7.423,0,0,0-4.991-1.921c-.026,0-.058.01-.086.01s-.073-.01-.113-.01a8.485,8.485,0,0,0-1.764.207,6.4,6.4,0,0,0-2.755-.661c-.037,0-.081.005-.118.005s-.052-.005-.084-.005a5.685,5.685,0,0,0-2.574.626c-.136-.068-.286-.147-.417-.215a9.219,9.219,0,0,0-4.461-1.339c-.026,0-.055.01-.084.01s-.073-.01-.115-.01a7.148,7.148,0,0,0-1.651.215c-.346-.315-.687-.6-1.007-.873-.031-.058-.063-.113-.092-.168a1.55,1.55,0,0,1,.165-.244.637.637,0,0,1,.071,0,8.7,8.7,0,0,0,1.059.073c.029,0,.058-.008.089-.008s.073.008.11.008a5.308,5.308,0,0,0,5.463-4.758c.162-1.235.367-2.466.584-3.772a48.776,48.776,0,0,0,.962-10.39,4.3,4.3,0,0,0-1.319-2.923,6.772,6.772,0,0,0-4.681-2.2c-.037,0-.066.01-.1.013s-.063-.013-.1-.013a5.563,5.563,0,0,0-4.322,2.115,6.342,6.342,0,0,0-3.337,2.668,5.59,5.59,0,0,1-3.415,2.7,4.346,4.346,0,0,0-2.356,1.533l0,0A5.966,5.966,0,0,0,675.433,785a4,4,0,0,1-1.47.983,6.247,6.247,0,0,0-1.193.142,4.472,4.472,0,0,0-.878.128,14.377,14.377,0,0,0-2.689-2.97c-.183-.162-.37-.328-.553-.5a9.684,9.684,0,0,0-2.64-1.683v.1c-.068-.031-.131-.073-.2-.1v5.138c1.229,1.111,2.409,2.05,2.941,3.929a1.187,1.187,0,0,0,1.29.941c.031,0,.068-.008.1-.008s.06.008.094.008c.828,0,1.874-.409,2.689-.417.037-.081.073-.231.108-.231h.068c.176,0,.338-.024.511-.029a2.409,2.409,0,0,1,.621-.1c.031,0,.063,0,.1.008.011,0,.024,0,.037.005s.029-.01.045-.013c.039,0,.079,0,.118.008.013,0,.026,0,.037.005a8.4,8.4,0,0,0,4.763-2.933,1.642,1.642,0,0,1,.936-1.1c.152-.189.3-.375.456-.566a9.916,9.916,0,0,0,6.021-4.59c.608-.965,1.415-1,2.3-1.138a0,0,0,0,1,0,0c.566-1.043,1.051-1.557,1.609-1.607a2.967,2.967,0,0,1,1.557.965h0c.2,4.55-.936,8.951-1.515,13.413a1,1,0,0,1-1.083.975c-.131-.008-.265-.013-.4-.031a6.518,6.518,0,0,0-.792-.05c-.029,0-.055.005-.084.005s-.079-.005-.115-.005c-2.569,0-3.822,1.772-4.708,4.039-.823,1.3.519,1.976.865,2.938h0v0h0a1.989,1.989,0,0,1,.073.351h0c.771.668,1.594,1.29,2.3,2.024a3.583,3.583,0,0,0,2.121,1.075c.031,0,.05-.018.079-.021s.084.021.121.021a.608.608,0,0,0,.341-.087,3.139,3.139,0,0,1,1.667-.582c1.334.05,2.464,1.041,3.717,1.463a4.161,4.161,0,0,0,1.562.448c.034,0,.066-.018.1-.018s.068.018.1.018a1.691,1.691,0,0,0,1.18-.488h0a1.558,1.558,0,0,1,1-.487c.857.063,1.646.865,2.509.865a1.446,1.446,0,0,0,.149-.01c.016,0,.031.01.05.01a1.612,1.612,0,0,0,.191-.013,5.474,5.474,0,0,1,1.838-.412,3.055,3.055,0,0,1,1.984.813h0c.225.2.451.4.676.6h0c1.368.944,3.012.548,4.75.86-2.409,1.143-2.579,2.9-1.932,4.944a.927.927,0,0,1,.113.252c.265,2.068.157,4.621,1.982,4.621.039,0,.086-.013.126-.016a.6.6,0,0,0,.073.016,5.744,5.744,0,0,0,2.776-1.1,9.347,9.347,0,0,1,1.017.55,8.35,8.35,0,0,0,1.106.144h.131c1.7,0,3.659.113,3.945,2.018.265,1.782-1.751,2.024-3.085,2.813-1.374.815-3.358,2.089-3.321,3.9.042,2.068,2.265,2.889,3.942,3.491a14.049,14.049,0,0,0,4.737.826c.034,0,.065-.008.1-.008s.068.008.1.008a13.331,13.331,0,0,0,2.44-.223,7.835,7.835,0,0,1,1.329-.136,4.646,4.646,0,0,1,3.99,2.252c1.489,2.2,3.09,4.079,6.118,4.173a4.2,4.2,0,0,1,3.316,2.257v0h0a8.774,8.774,0,0,0,5.607,3.035c1.269.207,2.322.658,2.522,2.113a71.241,71.241,0,0,0,12.962,5.321,65.543,65.543,0,0,1,13.046,6.459c1.8,1.077,2.983,3.219,4.349,4.954.681.868-.435.978-.818,1.384q.22.582.435,1.164h0v0c1.339,2.065,1.334,2.042-.642,2.522-1.79.435-2.191,2.01-2.524,3.442a6.2,6.2,0,0,0,.144,3.79c-.005,4.016.388,7.955-1.578,11.871a6.955,6.955,0,0,1-6.789,4.3h-.034a5.589,5.589,0,0,0-5.2,2.558c-.98,1.557-2.684,2.27-3.837,3.6a2.686,2.686,0,0,1-1.248,1.777c-3.966,2.05-4.564,5.575-4.066,9.434.283,2.183-.744,3.334-2.6,3.494-1.72.149-2.183,1.408-3.208,2.262-2.611,2.173-3.5,4.647-3.408,8.068.079,2.844-3.919,6.246-6.66,6.647-1.248.184-1.837.438-1.245,1.961,1.1,2.82.288,4.587-2.5,5.759a2.329,2.329,0,0,0-1.552,1.41c-.089.26-.155.629-.351.742-4.425,2.535-5.533,7.929-9.544,10.846a10.915,10.915,0,0,1-4.482,2.079h0c-.058.018-.107.044-.162.063a8.215,8.215,0,0,0-2.894.579c-5.09-.1-8.841,1.913-10.2,5.565a18.352,18.352,0,0,1-2.668,4.283,31.8,31.8,0,0,0-2.844,4.27,2.006,2.006,0,0,1-.561.768,1.775,1.775,0,0,1-.522.024l-.354-.018c-2.063-.121-5.392-.312-8.278,1.371a12.321,12.321,0,0,0-5.677,4.073,13.4,13.4,0,0,1-1.122,1.172l-1.324.986h-.907c-.037.312-.076.627-.115.938a3.822,3.822,0,0,0-.537.928l-.254,1.9c-.191.27-.383.545-.574.818h0c-1.261,1.979-1.62,4.545-3.893,5.864l-.008.011c-1.159,1.654-3.14,1.995-4.81,2.364-2.582.569-3.594,2.265-4.037,4.359-.726,3.428-2.535,6.5-2.888,10.086-.265,2.645-2.561,3.9-5.169,4.3a2.588,2.588,0,0,1-1.719,1.177,3.306,3.306,0,0,1-1.843-1c-2.519-2.241-4.246-5.408-7.945-6.43a11.867,11.867,0,0,0-3-.8c-.029,0-.063.01-.092.01s-.071-.01-.107-.01a3.146,3.146,0,0,0-1.6.451,1.962,1.962,0,0,1-.931.207c-.6-.016-1.261-.131-1.856-.131h0a.107.107,0,0,1-.024.013c-.058,0-.118-.01-.173-.01h0a21.179,21.179,0,0,1-10.765,3.337,17.308,17.308,0,0,1-5.769-1.048.818.818,0,0,0-.3-.05.75.75,0,0,0-.107.016c-.031,0-.06-.016-.092-.016-.459,0-.954.286-1.4.325-.288-.031-.55-.207-.76-.705-2.569-.165-2.668-2-2.425-3.811a11.087,11.087,0,0,0-1.906-8.417c-.946-1.376-2.008-4.569.1-6.671a1.934,1.934,0,0,0,.613-1.111,4.775,4.775,0,0,1-.194-1.08c-.406-.844-1.182-1.641-.959-2.6s1.266-2.045.946-3.083a8.278,8.278,0,0,0,.467-3.332,7.872,7.872,0,0,0-1.906-4.6c-1.476-4.873-4.55-7.816-8.443-7.984a18.425,18.425,0,0,1-4.9-1.214,31.585,31.585,0,0,0-4.938-1.387,1.905,1.905,0,0,1-.9-.3,1.67,1.67,0,0,1-.186-.488l-.089-.341c-.524-2-1.368-5.227-3.864-7.452a12.337,12.337,0,0,0-5.625-4.144,13.035,13.035,0,0,1-1.46-.705l-1.586-1.125a3.967,3.967,0,0,0-2.018-.737l-2.273-.16-.577-.042c-.191-.239-.435.089-.566.3a2.368,2.368,0,0,0-.729.553,1.507,1.507,0,0,1-.862.446.2.2,0,0,1-.11-.024c-2.862-1.636-6.173-1.845-9.211-2.9,0,0,0,0,0,.005h0a6.906,6.906,0,0,0-1.017-.068c-1.09,0-2.2.191-3.282.191a5.408,5.408,0,0,1-2.275-.433c-3.471-1.583-7.785-1.193-10.532-4.553a2.483,2.483,0,0,0-1.856-.912,1.98,1.98,0,0,0-1.138.359,2.328,2.328,0,0,1-1.345.467,2.458,2.458,0,0,1-.729-.118h0a5.108,5.108,0,0,1-1.643.275c-2.084,0-3.782-1.332-5.515-2.391-.668-.411-.98-1.748-.3-2.241,2.33-1.693,2-4.008,1.869-6.33h0v0c.341-.312,1.012-.682.97-.931-.472-2.755,1.408-5.452-.375-8.4-.978-1.612,1.342-3.355,2.317-4.938.676-1.1,1.984-1.885.223-3.1-.4-.278-.59-.923-.11-1.193,3.782-2.147.563-6.5,2.954-9.13.543-.592-.647-.944-.98-1.45-.7-1.064-2.142-1.937-.1-3.221.965-.608.537-1.6-.611-1.651l-.089,0c-.283,0-.579.05-.839.05-.4,0-.726-.123-.776-.765a1.687,1.687,0,0,1,1.282-1.672c1.662-.443,1.539-1.028.283-1.848-.312.089-.592.38-.91.38a.58.58,0,0,1-.362-.136c-.055-.042.181-.459.28-.7h0c-1.83-1.274-2.354-4.409-1.174-7.046a1.322,1.322,0,0,1,.037-.43h0c-1.352-1.6-4.065-2.49-2.959-5.473.021-.058-2.375-.443-1.41-2.183-.54-1.777.042-2.8,1.851-3.533,2.4-.972,4.162-3.172,7.111-3.229,1.46-.026.868-1.227.343-2.037a.268.268,0,0,1-.244-.286v0c-2.522-1.418-4.411-3.6-6.587-5.426-1.324-1.114-.28-1.911.38-2.755l8.477-14.485a22.561,22.561,0,0,1,2.873-5.389c.391-.605.993-1.484,1.544-1.518,3.651-.212,1.651-3.088,1.222-3.7a2.325,2.325,0,0,1-.155-2.7q3.543-8.784,7.054-17.578c.529-1.326,1.048-2.632,3.106-2.721-2.692-2.574-3.491-5.824-4.511-8.97h0a6.538,6.538,0,0,1-1.552-4.946c.162-1.793-1.062-3.709-1.672-5.573h0c-.134-1.528-1.476-3.586,1.641-3.693a2.525,2.525,0,0,1,.3-.018c1.486,0,1.478,1.381,1.562,2.3a13.8,13.8,0,0,0,2.645,6.262,6.657,6.657,0,0,0,5.224,3.271h0c2.605-2.288,6.031-1.853,9.09-2.529,2.545-.564,5.313-2.432,6.168-5.062a2.642,2.642,0,0,1,1.982-2.081,1.711,1.711,0,0,0,.585.113c1.395,0,1.533-2.239,2.93-2.239a1.473,1.473,0,0,1,.291.031h0a3.831,3.831,0,0,1-.029-2.2h0a6.84,6.84,0,0,1,5.106-2.582,7.213,7.213,0,0,1,1.89.267,5.94,5.94,0,0,0,1.549.173c.716,0,1.45-.068,2.163-.068h.141a1.619,1.619,0,0,1,.852-.309,1.052,1.052,0,0,1,.9.616l1.122.155a45.371,45.371,0,0,1,10.346-3.971,6.4,6.4,0,0,1,1.486-.2,3.086,3.086,0,0,1,3.022,1.953,2.314,2.314,0,0,0,1.727,1.316c2.2.33,3.982,1.717,5.942,2.65v-4.9a17.226,17.226,0,0,0-4.238-1.819,7.341,7.341,0,0,0-6.453-3.528,10.682,10.682,0,0,0-2.514.322,49.122,49.122,0,0,0-9.484,3.415,5.169,5.169,0,0,0-1.856-.341,5.5,5.5,0,0,0-1.856.33c-.141.005-.283.01-.427.018-.294.013-.585.029-.873.029a2.332,2.332,0,0,1-.425-.024,11.517,11.517,0,0,0-3.014-.414,11.069,11.069,0,0,0-8.294,3.979,4.284,4.284,0,0,0-.75,1.13,5.983,5.983,0,0,0-.467,1.494q-.181.193-.33.378a6.812,6.812,0,0,0-5.145,4.967,4.319,4.319,0,0,1-2.983,2.17c-.663.147-1.447.233-2.275.328a17.445,17.445,0,0,0-6.655,1.725,3.5,3.5,0,0,1-.815-.925,10.13,10.13,0,0,1-1.963-4.3l-.013-.168c-.461-5.625-4.605-6.063-5.864-6.063-.194,0-.393.008-.606.026a6.268,6.268,0,0,0-4.954,2.322,6.427,6.427,0,0,0-.794,5.675c.037.152.076.3.1.443a4.01,4.01,0,0,0,.2.928c.244.747.543,1.45.8,2.071a9.918,9.918,0,0,1,.666,1.837,10.471,10.471,0,0,0,1.953,7.242l.11.343a31.665,31.665,0,0,0,2.218,5.672,11.874,11.874,0,0,0-1.027,2.081q-3.511,8.8-7.051,17.57a6.811,6.811,0,0,0-.343,4.933,9.565,9.565,0,0,0-1.89,2.252l-.22.343a26.13,26.13,0,0,0-2.978,5.6l-8.073,13.8a.236.236,0,0,0-.024.026,6.1,6.1,0,0,0-1.746,4.582,5.72,5.72,0,0,0,2.162,3.95c.629.527,1.229,1.088,1.83,1.646.265.246.535.5.81.75-.142.092-.278.183-.414.27a11.581,11.581,0,0,1-1.691.986c-3.413,1.384-5.093,4.055-4.689,7.305a5.359,5.359,0,0,0,.288,2.993,5.417,5.417,0,0,0,1.051,1.664,8.016,8.016,0,0,0,2.658,4.695,10.35,10.35,0,0,0,1.423,7.428,2.817,2.817,0,0,0,.063.309,5.706,5.706,0,0,0-.4,2.6,5.267,5.267,0,0,0,1.256,3.093,6,6,0,0,0,1.463,4.047,13.559,13.559,0,0,0-.3,3.885c.01.351.026.836.008,1.159a4.867,4.867,0,0,0-2.273,3.911,5.123,5.123,0,0,0,.427,2.265c-.094.113-.191.233-.283.341-1.187,1.439-3.974,4.8-1.67,8.608.218.359.212.737-.034,2.246a21.8,21.8,0,0,0-.273,2.173,4.339,4.339,0,0,0-.907,2.9l.031.529a8.437,8.437,0,0,1-.005,1.966c-.005,0-.045.039-.118.094a5.378,5.378,0,0,0-2.16,4.6,5.969,5.969,0,0,0,2.747,4.836c.246.152.493.309.742.467a12.878,12.878,0,0,0,7.035,2.564,9.387,9.387,0,0,0,1.827-.181c.181.013.364.024.545.024a6.288,6.288,0,0,0,2.063-.346c2.535,2.385,5.533,3.106,8.005,3.7a17.885,17.885,0,0,1,3.007.9,9.581,9.581,0,0,0,4.071.823c.726,0,1.408-.058,2.005-.11.427-.037.852-.079,1.277-.079.044,0,.086,0,.126,0,1.156.37,2.28.634,3.371.894a17.358,17.358,0,0,1,4.579,1.5,4.579,4.579,0,0,0,2.259.592,5.156,5.156,0,0,0,2.163-.509V943.2l2.692.189h0l1.683,1.193h0c2.084,1.337,4.676,1.573,6.186,4.144l.013.008c1.751,1.24,2.262,3.544,2.776,5.478a5.4,5.4,0,0,0,4.7,4.422c3.484.6,6.7,2.5,10.309,2.653,2.661.115,4.107,2.721,4.734,5.759a3.036,3.036,0,0,1,1.347,2.039,4,4,0,0,1-.849,2.37c-.115.178-.239.354-.359.53h-.891a6.125,6.125,0,0,0,.771,1.305c.018.042.034.094.052.134a6.449,6.449,0,0,0-.238.786,6.148,6.148,0,0,0,.537,4.144c-2.165,3.389-1.489,7.775.556,10.747a6.769,6.769,0,0,1,1.182,5.389,8,8,0,0,0,1.376,6.3,6.422,6.422,0,0,0,3.009,2.029,5.021,5.021,0,0,0,3.193,1.114c.039,0,.071-.008.108-.008s.063.005.092.005a5.591,5.591,0,0,0,1.318-.163,21.446,21.446,0,0,0,6.181.928c.034,0,.068-.008.1-.008s.063.008.092.008a24.415,24.415,0,0,0,11.806-3.245c.252.018.511.039.794.039.026,0,.045-.008.068-.008.047,0,.087.008.134.008a6.445,6.445,0,0,0,2.674-.545c.084.029.17.06.249.089.43.155.875.309,1.342.438,1.337.37,2.317,1.394,3.809,3.033a31.958,31.958,0,0,0,2.409,2.456,7.446,7.446,0,0,0,4.831,2.118c.029,0,.055-.008.084-.008s.076.008.115.008a6.058,6.058,0,0,0,4.008-1.562c4.215-1.114,6.9-3.961,7.284-7.832a20.691,20.691,0,0,1,1.334-4.794,35.836,35.836,0,0,0,1.484-4.823,2.166,2.166,0,0,1,.307-.878,1.28,1.28,0,0,1,.425-.149l.3-.063a11.369,11.369,0,0,0,6.545-3.3,12.083,12.083,0,0,0,3.858-5.305,13.865,13.865,0,0,1,.687-1.4l1.054-1.5a4.327,4.327,0,0,0,.718-1.832c.01-.021.034-.039.039-.06l1.657-1.235h0c1.914-1.568,2.936-3.961,5.851-4.6l.008-.008c1.72-1.284,4.071-1.059,6.071-.951a5.4,5.4,0,0,0,5.657-3.1c1.646-3.127,4.446-5.6,5.706-8.988.779-2.092,2.975-2.629,5.484-2.548v.917c.48-.278.957-.53,1.431-.781a.384.384,0,0,0,.231-.034,21.271,21.271,0,0,1,2.629-1.2,15.278,15.278,0,0,0,5.882-2.76,22.245,22.245,0,0,0,5.421-6.286c1.216-1.861,2.267-3.471,3.727-4.307A4.787,4.787,0,0,0,735,937.529c3.6-1.7,5.379-4.6,5.069-8.089,3.932-1.822,7.578-5.932,7.468-10.154-.071-2.553.566-3.56,1.848-4.624a11.648,11.648,0,0,0,1.266-1.266c.018-.024.037-.045.058-.068a6.942,6.942,0,0,0,4.564-2.5,7.417,7.417,0,0,0,1.444-5.806c-.464-3.573.522-4.393,1.754-5.03a6.57,6.57,0,0,0,2.98-3.2c.178-.144.385-.3.6-.467a12.482,12.482,0,0,0,3.19-3.248c.173-.275.336-.537,1.531-.537a11.231,11.231,0,0,0,10.692-6.687c2.157-4.291,2.1-8.456,2.055-12.131-.008-.558-.016-1.119-.016-1.68a4.3,4.3,0,0,0-.322-1.651,2.12,2.12,0,0,1,.071-1.166c.021-.1.058-.249.1-.406a5.146,5.146,0,0,0,3.782-3.038A4.838,4.838,0,0,0,782.881,861.719Z" transform="translate(-530.121 -709.07)" fill="#fff"/>
      <path id="Caminho_13" data-name="Caminho 13" d="M1009.682,1672.34h0a4.118,4.118,0,0,1-1.452.252c.029,0,.058,0,.089,0A3.644,3.644,0,0,0,1009.682,1672.34Z" transform="translate(-882.908 -1377.884)" fill="#fff"/>
      <path id="Caminho_14" data-name="Caminho 14" d="M1153.178,914.354a1.515,1.515,0,0,0,.671-.168,9.589,9.589,0,0,0-1.609-.126A1.916,1.916,0,0,0,1153.178,914.354Z" transform="translate(-989.17 -818.365)" fill="#008859"/>
      <path id="Caminho_15" data-name="Caminho 15" d="M633.437,866.926l-.018-.016-.189.149Z" transform="translate(-606.203 -783.574)" fill="#008859"/>
      <path id="Caminho_16" data-name="Caminho 16" d="M896.7,1469.348h.1l3.835-25.748h7.927v36.265h-5.389v-26.008h-.1l-3.835,26.008h-5.387l-4.144-25.643h-.1v25.643H884.63V1443.6h7.927Z" transform="translate(-791.706 -1209.101)" fill="#fff"/>
      <path id="Caminho_17" data-name="Caminho 17" d="M996.938,1442.02c5.544,0,8.393,3.316,8.393,9.119v1.138h-5.389v-1.5c0-2.59-1.035-3.575-2.849-3.575s-2.849.986-2.849,3.575c0,2.642,1.14,4.611,4.87,7.874,4.765,4.2,6.27,7.2,6.27,11.347,0,5.8-2.9,9.117-8.5,9.117s-8.5-3.313-8.5-9.117v-2.228h5.387v2.59c0,2.59,1.14,3.523,2.954,3.523s2.951-.933,2.951-3.523c0-2.642-1.138-4.611-4.867-7.874-4.768-4.2-6.27-7.2-6.27-11.344C988.545,1445.336,991.394,1442.02,996.938,1442.02Z" transform="translate(-868.268 -1207.936)" fill="#fff"/>
      <path id="Caminho_18" data-name="Caminho 18" d="M748.987,956.9h-.128v34.587H742.67V943.74H751.3l6.941,28.584h.126V943.74H764.5v47.751H757.43Z" transform="translate(-686.956 -840.265)" fill="#fff"/>
      <path id="Caminho_19" data-name="Caminho 19" d="M845.461,978.968c0,3.408,1.376,4.705,3.565,4.705s3.565-1.3,3.565-4.705v-25.79c0-3.408-1.376-4.705-3.565-4.705s-3.565,1.3-3.565,4.705Zm-6.881-25.31c0-7.641,3.693-12.008,10.445-12.008s10.443,4.367,10.443,12.008v24.831c0,7.641-3.688,12.008-10.443,12.008s-10.445-4.367-10.445-12.008Z" transform="translate(-757.726 -838.723)" fill="#fff"/>
      <path id="Caminho_20" data-name="Caminho 20" d="M938.041,950.56v14.668h2.687c2.564,0,4.128-1.229,4.128-5.049v-4.708c0-3.41-1.064-4.912-3.5-4.912Zm7.5,40.93c-.375-1.227-.627-1.976-.627-5.866v-7.5c0-4.435-1.373-6.073-4.5-6.073h-2.375v19.442H931.16V943.74h10.383c7.13,0,10.191,3.615,10.191,10.98v3.754c0,4.912-1.436,8.05-4.5,9.62v.136c3.439,1.568,4.566,5.117,4.566,10.1v7.366a15.2,15.2,0,0,0,.752,5.8Z" transform="translate(-826.039 -840.265)" fill="#fff"/>
      <path id="Caminho_21" data-name="Caminho 21" d="M1015.39,943.74h21.263v6.82h-7.193v40.93h-6.878V950.56h-7.193Z" transform="translate(-888.191 -840.265)" fill="#fff"/>
      <path id="Caminho_22" data-name="Caminho 22" d="M1110.791,963.863h9.442v6.823h-9.442V984.67h11.882v6.82H1103.91V943.74h18.763v6.82h-11.882Z" transform="translate(-953.508 -840.265)" fill="#fff"/>
    </g>
    <g id="Grupo_5" data-name="Grupo 5" transform="translate(499 218)">
      <path id="Caminho_1-2" data-name="Caminho 1" d="M651.35,1223.282h10.134v-26.626h13.08v-9.214h-13.08V1168H678.16v-9.214H651.35Z" transform="translate(-619.573 -998.946)" fill="#fff"/>
      <path id="Caminho_2-2" data-name="Caminho 2" d="M789.737,1206.375c0,4.605-2.026,6.356-5.25,6.356s-5.253-1.751-5.253-6.356V1171.55c0-4.605,2.026-6.356,5.253-6.356s5.25,1.751,5.25,6.356Zm-5.25-50.4c-9.95,0-15.386,5.9-15.386,16.215v33.536c0,10.32,5.436,16.215,15.386,16.215s15.384-5.9,15.384-16.215v-33.536C799.87,1161.878,794.437,1155.98,784.486,1155.98Z" transform="translate(-706.459 -996.873)" fill="#fff"/>
      <path id="Caminho_3-2" data-name="Caminho 3" d="M931.635,1180.994c0,5.159-2.3,6.818-6.081,6.818h-3.961V1168h4.883c3.594,0,5.159,2.026,5.159,6.634v6.356Zm10.228,24.506c0-6.726-1.659-11.518-6.726-13.636v-.183c4.516-2.12,6.632-6.356,6.632-12.991v-5.067c0-9.947-4.511-14.833-15.017-14.833H911.46v64.492h10.134v-26.257h3.5c4.605,0,6.632,2.21,6.632,8.2v10.136c0,5.253.37,6.265.923,7.924h10.317c-1.012-2.4-1.1-4.7-1.1-7.832Z" transform="translate(-811.503 -998.946)" fill="#fff"/>
      <path id="Caminho_4-2" data-name="Caminho 4" d="M1041.51,1168H1052.1v55.279h10.134V1168h10.6v-9.214H1041.51Z" transform="translate(-907.464 -998.946)" fill="#fff"/>
      <path id="Caminho_5-2" data-name="Caminho 5" d="M1205.531,1168v-9.214H1177.89v64.492h27.641v-9.214h-17.5v-18.886h13.911v-9.214h-13.911V1168Z" transform="translate(-1008.096 -998.946)" fill="#fff"/>
      <path id="Caminho_6-2" data-name="Caminho 6" d="M913.27,728.623l14.173-14.157V670.06Z" transform="translate(-812.839 -638.322)" fill="#fdb92e"/>
      <path id="Caminho_7-2" data-name="Caminho 7" d="M967.34,670.06v44.406l14.175,14.157Z" transform="translate(-852.736 -638.322)" fill="#f58634"/>
      <path id="Caminho_8-2" data-name="Caminho 8" d="M738.676,553.011c-1.429,0-2.325.765-2.325,2.784v3.022H732.11v-2.742c0-4.516,2.283-7.1,6.689-7.1s6.687,2.579,6.687,7.1c0,3.751-1.384,6.776-5.544,11.169-2.653,2.823-3.387,4.155-3.387,5.646a3.136,3.136,0,0,0,.039.605h8.485v4.031H732.11V574.06c0-3.145,1.14-5.523,4.485-8.993,3.429-3.586,4.406-5.806,4.406-8.828,0-2.54-.9-3.227-2.325-3.227Z" transform="translate(-679.164 -548.98)" fill="#fff"/>
      <path id="Caminho_9-2" data-name="Caminho 9" d="M874.588,571.035c0,2.018.9,2.784,2.325,2.784s2.325-.765,2.325-2.784V555.8c0-2.018-.9-2.784-2.325-2.784s-2.325.765-2.325,2.784ZM870.1,556.076c0-4.516,2.409-7.1,6.813-7.1s6.81,2.579,6.81,7.1v14.679c0,4.516-2.406,7.1-6.81,7.1s-6.813-2.579-6.813-7.1Z" transform="translate(-780.984 -548.98)" fill="#fff"/>
      <path id="Caminho_10-2" data-name="Caminho 10" d="M1018.861,556.238c0-2.54-.9-3.227-2.325-3.227s-2.325.765-2.325,2.784v1.814h-4.241v-1.533c0-4.516,2.283-7.1,6.689-7.1s6.689,2.579,6.689,7.1v.726c0,3.025-.98,4.878-3.14,5.767v.081c2.241.967,3.14,3.022,3.14,5.887v2.218c0,4.516-2.286,7.1-6.689,7.1s-6.689-2.579-6.689-7.1v-2.338h4.241v2.619c0,2.018.9,2.784,2.325,2.784s2.325-.687,2.325-3.185v-2.218c0-2.621-.9-3.591-2.936-3.591h-1.51v-4.031h1.754c1.675,0,2.692-.726,2.692-2.983Z" transform="translate(-884.191 -548.98)" fill="#fff"/>
      <path id="Caminho_11-2" data-name="Caminho 11" d="M1153.387,571.035c0,2.018.9,2.784,2.325,2.784s2.323-.765,2.323-2.784V555.8c0-2.018-.9-2.784-2.323-2.784s-2.325.765-2.325,2.784Zm-4.487-14.959c0-4.516,2.406-7.1,6.812-7.1s6.81,2.579,6.81,7.1v14.679c0,4.516-2.406,7.1-6.81,7.1s-6.812-2.579-6.812-7.1Z" transform="translate(-986.705 -548.98)" fill="#fff"/>
      <path id="Caminho_12-2" data-name="Caminho 12" d="M782.881,861.719a4.785,4.785,0,0,0,.144-.548,4.942,4.942,0,0,0-1.046-4.113c-.309-.393-.608-.813-.907-1.229a16.075,16.075,0,0,0-4.624-4.763,68.807,68.807,0,0,0-13.926-6.862,72.951,72.951,0,0,1-10.854-4.265,6.986,6.986,0,0,0-5.269-3.324,4.494,4.494,0,0,1-2.823-1.353,8.377,8.377,0,0,0-6.668-4c-.713-.021-1.224-.144-2.666-2.273a8.948,8.948,0,0,0-7.67-4.162c-.024,0-.05.005-.076.008-.042,0-.081-.008-.126-.008a12.251,12.251,0,0,0-2.233.218,8.88,8.88,0,0,1-1.552.144,9.753,9.753,0,0,1-2.558-.372c.042-.018.081-.034.121-.052,3.484-1.51,5.017-3.832,4.561-6.9-.385-2.579-2.094-5.649-8.037-5.714a5.053,5.053,0,0,0-2.55-.724c-.034,0-.071.005-.107.005s-.058-.005-.092-.005c-.131,0-.265.016-.4.026a4.775,4.775,0,0,0-.181-.679,4.333,4.333,0,0,0-1.486-7.963,16.981,16.981,0,0,0-2.338-.22c-.249-.01-.564-.021-.781-.045l-.186-.165a7.423,7.423,0,0,0-4.991-1.921c-.026,0-.058.01-.086.01s-.073-.01-.113-.01a8.485,8.485,0,0,0-1.764.207,6.4,6.4,0,0,0-2.755-.661c-.037,0-.081.005-.118.005s-.052-.005-.084-.005a5.685,5.685,0,0,0-2.574.626c-.136-.068-.286-.147-.417-.215a9.219,9.219,0,0,0-4.461-1.339c-.026,0-.055.01-.084.01s-.073-.01-.115-.01a7.148,7.148,0,0,0-1.651.215c-.346-.315-.687-.6-1.007-.873-.031-.058-.063-.113-.092-.168a1.55,1.55,0,0,1,.165-.244.637.637,0,0,1,.071,0,8.7,8.7,0,0,0,1.059.073c.029,0,.058-.008.089-.008s.073.008.11.008a5.308,5.308,0,0,0,5.463-4.758c.162-1.235.367-2.466.584-3.772a48.776,48.776,0,0,0,.962-10.39,4.3,4.3,0,0,0-1.319-2.923,6.772,6.772,0,0,0-4.681-2.2c-.037,0-.066.01-.1.013s-.063-.013-.1-.013a5.563,5.563,0,0,0-4.322,2.115,6.342,6.342,0,0,0-3.337,2.668,5.59,5.59,0,0,1-3.415,2.7,4.346,4.346,0,0,0-2.356,1.533l0,0A5.966,5.966,0,0,0,675.433,785a4,4,0,0,1-1.47.983,6.247,6.247,0,0,0-1.193.142,4.472,4.472,0,0,0-.878.128,14.377,14.377,0,0,0-2.689-2.97c-.183-.162-.37-.328-.553-.5a9.684,9.684,0,0,0-2.64-1.683v.1c-.068-.031-.131-.073-.2-.1v5.138c1.229,1.111,2.409,2.05,2.941,3.929a1.187,1.187,0,0,0,1.29.941c.031,0,.068-.008.1-.008s.06.008.094.008c.828,0,1.874-.409,2.689-.417.037-.081.073-.231.108-.231h.068c.176,0,.338-.024.511-.029a2.409,2.409,0,0,1,.621-.1c.031,0,.063,0,.1.008.011,0,.024,0,.037.005s.029-.01.045-.013c.039,0,.079,0,.118.008.013,0,.026,0,.037.005a8.4,8.4,0,0,0,4.763-2.933,1.642,1.642,0,0,1,.936-1.1c.152-.189.3-.375.456-.566a9.916,9.916,0,0,0,6.021-4.59c.608-.965,1.415-1,2.3-1.138a0,0,0,0,1,0,0c.566-1.043,1.051-1.557,1.609-1.607a2.967,2.967,0,0,1,1.557.965h0c.2,4.55-.936,8.951-1.515,13.413a1,1,0,0,1-1.083.975c-.131-.008-.265-.013-.4-.031a6.518,6.518,0,0,0-.792-.05c-.029,0-.055.005-.084.005s-.079-.005-.115-.005c-2.569,0-3.822,1.772-4.708,4.039-.823,1.3.519,1.976.865,2.938h0v0h0a1.989,1.989,0,0,1,.073.351h0c.771.668,1.594,1.29,2.3,2.024a3.583,3.583,0,0,0,2.121,1.075c.031,0,.05-.018.079-.021s.084.021.121.021a.608.608,0,0,0,.341-.087,3.139,3.139,0,0,1,1.667-.582c1.334.05,2.464,1.041,3.717,1.463a4.161,4.161,0,0,0,1.562.448c.034,0,.066-.018.1-.018s.068.018.1.018a1.691,1.691,0,0,0,1.18-.488h0a1.558,1.558,0,0,1,1-.487c.857.063,1.646.865,2.509.865a1.446,1.446,0,0,0,.149-.01c.016,0,.031.01.05.01a1.612,1.612,0,0,0,.191-.013,5.474,5.474,0,0,1,1.838-.412,3.055,3.055,0,0,1,1.984.813h0c.225.2.451.4.676.6h0c1.368.944,3.012.548,4.75.86-2.409,1.143-2.579,2.9-1.932,4.944a.927.927,0,0,1,.113.252c.265,2.068.157,4.621,1.982,4.621.039,0,.086-.013.126-.016a.6.6,0,0,0,.073.016,5.744,5.744,0,0,0,2.776-1.1,9.347,9.347,0,0,1,1.017.55,8.35,8.35,0,0,0,1.106.144h.131c1.7,0,3.659.113,3.945,2.018.265,1.782-1.751,2.024-3.085,2.813-1.374.815-3.358,2.089-3.321,3.9.042,2.068,2.265,2.889,3.942,3.491a14.049,14.049,0,0,0,4.737.826c.034,0,.065-.008.1-.008s.068.008.1.008a13.331,13.331,0,0,0,2.44-.223,7.835,7.835,0,0,1,1.329-.136,4.646,4.646,0,0,1,3.99,2.252c1.489,2.2,3.09,4.079,6.118,4.173a4.2,4.2,0,0,1,3.316,2.257v0h0a8.774,8.774,0,0,0,5.607,3.035c1.269.207,2.322.658,2.522,2.113a71.241,71.241,0,0,0,12.962,5.321,65.543,65.543,0,0,1,13.046,6.459c1.8,1.077,2.983,3.219,4.349,4.954.681.868-.435.978-.818,1.384q.22.582.435,1.164h0v0c1.339,2.065,1.334,2.042-.642,2.522-1.79.435-2.191,2.01-2.524,3.442a6.2,6.2,0,0,0,.144,3.79c-.005,4.016.388,7.955-1.578,11.871a6.955,6.955,0,0,1-6.789,4.3h-.034a5.589,5.589,0,0,0-5.2,2.558c-.98,1.557-2.684,2.27-3.837,3.6a2.686,2.686,0,0,1-1.248,1.777c-3.966,2.05-4.564,5.575-4.066,9.434.283,2.183-.744,3.334-2.6,3.494-1.72.149-2.183,1.408-3.208,2.262-2.611,2.173-3.5,4.647-3.408,8.068.079,2.844-3.919,6.246-6.66,6.647-1.248.184-1.837.438-1.245,1.961,1.1,2.82.288,4.587-2.5,5.759a2.329,2.329,0,0,0-1.552,1.41c-.089.26-.155.629-.351.742-4.425,2.535-5.533,7.929-9.544,10.846a10.915,10.915,0,0,1-4.482,2.079h0c-.058.018-.107.044-.162.063a8.215,8.215,0,0,0-2.894.579c-5.09-.1-8.841,1.913-10.2,5.565a18.352,18.352,0,0,1-2.668,4.283,31.8,31.8,0,0,0-2.844,4.27,2.006,2.006,0,0,1-.561.768,1.775,1.775,0,0,1-.522.024l-.354-.018c-2.063-.121-5.392-.312-8.278,1.371a12.321,12.321,0,0,0-5.677,4.073,13.4,13.4,0,0,1-1.122,1.172l-1.324.986h-.907c-.037.312-.076.627-.115.938a3.822,3.822,0,0,0-.537.928l-.254,1.9c-.191.27-.383.545-.574.818h0c-1.261,1.979-1.62,4.545-3.893,5.864l-.008.011c-1.159,1.654-3.14,1.995-4.81,2.364-2.582.569-3.594,2.265-4.037,4.359-.726,3.428-2.535,6.5-2.888,10.086-.265,2.645-2.561,3.9-5.169,4.3a2.588,2.588,0,0,1-1.719,1.177,3.306,3.306,0,0,1-1.843-1c-2.519-2.241-4.246-5.408-7.945-6.43a11.867,11.867,0,0,0-3-.8c-.029,0-.063.01-.092.01s-.071-.01-.107-.01a3.146,3.146,0,0,0-1.6.451,1.962,1.962,0,0,1-.931.207c-.6-.016-1.261-.131-1.856-.131h0a.107.107,0,0,1-.024.013c-.058,0-.118-.01-.173-.01h0a21.179,21.179,0,0,1-10.765,3.337,17.308,17.308,0,0,1-5.769-1.048.818.818,0,0,0-.3-.05.75.75,0,0,0-.107.016c-.031,0-.06-.016-.092-.016-.459,0-.954.286-1.4.325-.288-.031-.55-.207-.76-.705-2.569-.165-2.668-2-2.425-3.811a11.087,11.087,0,0,0-1.906-8.417c-.946-1.376-2.008-4.569.1-6.671a1.934,1.934,0,0,0,.613-1.111,4.775,4.775,0,0,1-.194-1.08c-.406-.844-1.182-1.641-.959-2.6s1.266-2.045.946-3.083a8.278,8.278,0,0,0,.467-3.332,7.872,7.872,0,0,0-1.906-4.6c-1.476-4.873-4.55-7.816-8.443-7.984a18.425,18.425,0,0,1-4.9-1.214,31.585,31.585,0,0,0-4.938-1.387,1.905,1.905,0,0,1-.9-.3,1.67,1.67,0,0,1-.186-.488l-.089-.341c-.524-2-1.368-5.227-3.864-7.452a12.337,12.337,0,0,0-5.625-4.144,13.035,13.035,0,0,1-1.46-.705l-1.586-1.125a3.967,3.967,0,0,0-2.018-.737l-2.273-.16-.577-.042c-.191-.239-.435.089-.566.3a2.368,2.368,0,0,0-.729.553,1.507,1.507,0,0,1-.862.446.2.2,0,0,1-.11-.024c-2.862-1.636-6.173-1.845-9.211-2.9,0,0,0,0,0,.005h0a6.906,6.906,0,0,0-1.017-.068c-1.09,0-2.2.191-3.282.191a5.408,5.408,0,0,1-2.275-.433c-3.471-1.583-7.785-1.193-10.532-4.553a2.483,2.483,0,0,0-1.856-.912,1.98,1.98,0,0,0-1.138.359,2.328,2.328,0,0,1-1.345.467,2.458,2.458,0,0,1-.729-.118h0a5.108,5.108,0,0,1-1.643.275c-2.084,0-3.782-1.332-5.515-2.391-.668-.411-.98-1.748-.3-2.241,2.33-1.693,2-4.008,1.869-6.33h0v0c.341-.312,1.012-.682.97-.931-.472-2.755,1.408-5.452-.375-8.4-.978-1.612,1.342-3.355,2.317-4.938.676-1.1,1.984-1.885.223-3.1-.4-.278-.59-.923-.11-1.193,3.782-2.147.563-6.5,2.954-9.13.543-.592-.647-.944-.98-1.45-.7-1.064-2.142-1.937-.1-3.221.965-.608.537-1.6-.611-1.651l-.089,0c-.283,0-.579.05-.839.05-.4,0-.726-.123-.776-.765a1.687,1.687,0,0,1,1.282-1.672c1.662-.443,1.539-1.028.283-1.848-.312.089-.592.38-.91.38a.58.58,0,0,1-.362-.136c-.055-.042.181-.459.28-.7h0c-1.83-1.274-2.354-4.409-1.174-7.046a1.322,1.322,0,0,1,.037-.43h0c-1.352-1.6-4.065-2.49-2.959-5.473.021-.058-2.375-.443-1.41-2.183-.54-1.777.042-2.8,1.851-3.533,2.4-.972,4.162-3.172,7.111-3.229,1.46-.026.868-1.227.343-2.037a.268.268,0,0,1-.244-.286v0c-2.522-1.418-4.411-3.6-6.587-5.426-1.324-1.114-.28-1.911.38-2.755l8.477-14.485a22.561,22.561,0,0,1,2.873-5.389c.391-.605.993-1.484,1.544-1.518,3.651-.212,1.651-3.088,1.222-3.7a2.325,2.325,0,0,1-.155-2.7q3.543-8.784,7.054-17.578c.529-1.326,1.048-2.632,3.106-2.721-2.692-2.574-3.491-5.824-4.511-8.97h0a6.538,6.538,0,0,1-1.552-4.946c.162-1.793-1.062-3.709-1.672-5.573h0c-.134-1.528-1.476-3.586,1.641-3.693a2.525,2.525,0,0,1,.3-.018c1.486,0,1.478,1.381,1.562,2.3a13.8,13.8,0,0,0,2.645,6.262,6.657,6.657,0,0,0,5.224,3.271h0c2.605-2.288,6.031-1.853,9.09-2.529,2.545-.564,5.313-2.432,6.168-5.062a2.642,2.642,0,0,1,1.982-2.081,1.711,1.711,0,0,0,.585.113c1.395,0,1.533-2.239,2.93-2.239a1.473,1.473,0,0,1,.291.031h0a3.831,3.831,0,0,1-.029-2.2h0a6.84,6.84,0,0,1,5.106-2.582,7.213,7.213,0,0,1,1.89.267,5.94,5.94,0,0,0,1.549.173c.716,0,1.45-.068,2.163-.068h.141a1.619,1.619,0,0,1,.852-.309,1.052,1.052,0,0,1,.9.616l1.122.155a45.371,45.371,0,0,1,10.346-3.971,6.4,6.4,0,0,1,1.486-.2,3.086,3.086,0,0,1,3.022,1.953,2.314,2.314,0,0,0,1.727,1.316c2.2.33,3.982,1.717,5.942,2.65v-4.9a17.226,17.226,0,0,0-4.238-1.819,7.341,7.341,0,0,0-6.453-3.528,10.682,10.682,0,0,0-2.514.322,49.122,49.122,0,0,0-9.484,3.415,5.169,5.169,0,0,0-1.856-.341,5.5,5.5,0,0,0-1.856.33c-.141.005-.283.01-.427.018-.294.013-.585.029-.873.029a2.332,2.332,0,0,1-.425-.024,11.517,11.517,0,0,0-3.014-.414,11.069,11.069,0,0,0-8.294,3.979,4.284,4.284,0,0,0-.75,1.13,5.983,5.983,0,0,0-.467,1.494q-.181.193-.33.378a6.812,6.812,0,0,0-5.145,4.967,4.319,4.319,0,0,1-2.983,2.17c-.663.147-1.447.233-2.275.328a17.445,17.445,0,0,0-6.655,1.725,3.5,3.5,0,0,1-.815-.925,10.13,10.13,0,0,1-1.963-4.3l-.013-.168c-.461-5.625-4.605-6.063-5.864-6.063-.194,0-.393.008-.606.026a6.268,6.268,0,0,0-4.954,2.322,6.427,6.427,0,0,0-.794,5.675c.037.152.076.3.1.443a4.01,4.01,0,0,0,.2.928c.244.747.543,1.45.8,2.071a9.918,9.918,0,0,1,.666,1.837,10.471,10.471,0,0,0,1.953,7.242l.11.343a31.665,31.665,0,0,0,2.218,5.672,11.874,11.874,0,0,0-1.027,2.081q-3.511,8.8-7.051,17.57a6.811,6.811,0,0,0-.343,4.933,9.565,9.565,0,0,0-1.89,2.252l-.22.343a26.13,26.13,0,0,0-2.978,5.6l-8.073,13.8a.236.236,0,0,0-.024.026,6.1,6.1,0,0,0-1.746,4.582,5.72,5.72,0,0,0,2.162,3.95c.629.527,1.229,1.088,1.83,1.646.265.246.535.5.81.75-.142.092-.278.183-.414.27a11.581,11.581,0,0,1-1.691.986c-3.413,1.384-5.093,4.055-4.689,7.305a5.359,5.359,0,0,0,.288,2.993,5.417,5.417,0,0,0,1.051,1.664,8.016,8.016,0,0,0,2.658,4.695,10.35,10.35,0,0,0,1.423,7.428,2.817,2.817,0,0,0,.063.309,5.706,5.706,0,0,0-.4,2.6,5.267,5.267,0,0,0,1.256,3.093,6,6,0,0,0,1.463,4.047,13.559,13.559,0,0,0-.3,3.885c.01.351.026.836.008,1.159a4.867,4.867,0,0,0-2.273,3.911,5.123,5.123,0,0,0,.427,2.265c-.094.113-.191.233-.283.341-1.187,1.439-3.974,4.8-1.67,8.608.218.359.212.737-.034,2.246a21.8,21.8,0,0,0-.273,2.173,4.339,4.339,0,0,0-.907,2.9l.031.529a8.437,8.437,0,0,1-.005,1.966c-.005,0-.045.039-.118.094a5.378,5.378,0,0,0-2.16,4.6,5.969,5.969,0,0,0,2.747,4.836c.246.152.493.309.742.467a12.878,12.878,0,0,0,7.035,2.564,9.387,9.387,0,0,0,1.827-.181c.181.013.364.024.545.024a6.288,6.288,0,0,0,2.063-.346c2.535,2.385,5.533,3.106,8.005,3.7a17.885,17.885,0,0,1,3.007.9,9.581,9.581,0,0,0,4.071.823c.726,0,1.408-.058,2.005-.11.427-.037.852-.079,1.277-.079.044,0,.086,0,.126,0,1.156.37,2.28.634,3.371.894a17.358,17.358,0,0,1,4.579,1.5,4.579,4.579,0,0,0,2.259.592,5.156,5.156,0,0,0,2.163-.509V943.2l2.692.189h0l1.683,1.193h0c2.084,1.337,4.676,1.573,6.186,4.144l.013.008c1.751,1.24,2.262,3.544,2.776,5.478a5.4,5.4,0,0,0,4.7,4.422c3.484.6,6.7,2.5,10.309,2.653,2.661.115,4.107,2.721,4.734,5.759a3.036,3.036,0,0,1,1.347,2.039,4,4,0,0,1-.849,2.37c-.115.178-.239.354-.359.53h-.891a6.125,6.125,0,0,0,.771,1.305c.018.042.034.094.052.134a6.449,6.449,0,0,0-.238.786,6.148,6.148,0,0,0,.537,4.144c-2.165,3.389-1.489,7.775.556,10.747a6.769,6.769,0,0,1,1.182,5.389,8,8,0,0,0,1.376,6.3,6.422,6.422,0,0,0,3.009,2.029,5.021,5.021,0,0,0,3.193,1.114c.039,0,.071-.008.108-.008s.063.005.092.005a5.591,5.591,0,0,0,1.318-.163,21.446,21.446,0,0,0,6.181.928c.034,0,.068-.008.1-.008s.063.008.092.008a24.415,24.415,0,0,0,11.806-3.245c.252.018.511.039.794.039.026,0,.045-.008.068-.008.047,0,.087.008.134.008a6.445,6.445,0,0,0,2.674-.545c.084.029.17.06.249.089.43.155.875.309,1.342.438,1.337.37,2.317,1.394,3.809,3.033a31.958,31.958,0,0,0,2.409,2.456,7.446,7.446,0,0,0,4.831,2.118c.029,0,.055-.008.084-.008s.076.008.115.008a6.058,6.058,0,0,0,4.008-1.562c4.215-1.114,6.9-3.961,7.284-7.832a20.691,20.691,0,0,1,1.334-4.794,35.836,35.836,0,0,0,1.484-4.823,2.166,2.166,0,0,1,.307-.878,1.28,1.28,0,0,1,.425-.149l.3-.063a11.369,11.369,0,0,0,6.545-3.3,12.083,12.083,0,0,0,3.858-5.305,13.865,13.865,0,0,1,.687-1.4l1.054-1.5a4.327,4.327,0,0,0,.718-1.832c.01-.021.034-.039.039-.06l1.657-1.235h0c1.914-1.568,2.936-3.961,5.851-4.6l.008-.008c1.72-1.284,4.071-1.059,6.071-.951a5.4,5.4,0,0,0,5.657-3.1c1.646-3.127,4.446-5.6,5.706-8.988.779-2.092,2.975-2.629,5.484-2.548v.917c.48-.278.957-.53,1.431-.781a.384.384,0,0,0,.231-.034,21.271,21.271,0,0,1,2.629-1.2,15.278,15.278,0,0,0,5.882-2.76,22.245,22.245,0,0,0,5.421-6.286c1.216-1.861,2.267-3.471,3.727-4.307A4.787,4.787,0,0,0,735,937.529c3.6-1.7,5.379-4.6,5.069-8.089,3.932-1.822,7.578-5.932,7.468-10.154-.071-2.553.566-3.56,1.848-4.624a11.648,11.648,0,0,0,1.266-1.266c.018-.024.037-.045.058-.068a6.942,6.942,0,0,0,4.564-2.5,7.417,7.417,0,0,0,1.444-5.806c-.464-3.573.522-4.393,1.754-5.03a6.57,6.57,0,0,0,2.98-3.2c.178-.144.385-.3.6-.467a12.482,12.482,0,0,0,3.19-3.248c.173-.275.336-.537,1.531-.537a11.231,11.231,0,0,0,10.692-6.687c2.157-4.291,2.1-8.456,2.055-12.131-.008-.558-.016-1.119-.016-1.68a4.3,4.3,0,0,0-.322-1.651,2.12,2.12,0,0,1,.071-1.166c.021-.1.058-.249.1-.406a5.146,5.146,0,0,0,3.782-3.038A4.838,4.838,0,0,0,782.881,861.719Z" transform="translate(-530.121 -709.07)" fill="#fff"/>
      <path id="Caminho_13-2" data-name="Caminho 13" d="M1009.682,1672.34h0a4.118,4.118,0,0,1-1.452.252c.029,0,.058,0,.089,0A3.644,3.644,0,0,0,1009.682,1672.34Z" transform="translate(-882.908 -1377.884)" fill="#fff"/>
      <path id="Caminho_14-2" data-name="Caminho 14" d="M1153.178,914.354a1.515,1.515,0,0,0,.671-.168,9.589,9.589,0,0,0-1.609-.126A1.916,1.916,0,0,0,1153.178,914.354Z" transform="translate(-989.17 -818.365)" fill="#008859"/>
      <path id="Caminho_15-2" data-name="Caminho 15" d="M633.437,866.926l-.018-.016-.189.149Z" transform="translate(-606.203 -783.574)" fill="#008859"/>
      <path id="Caminho_16-2" data-name="Caminho 16" d="M896.7,1469.348h.1l3.835-25.748h7.927v36.265h-5.389v-26.008h-.1l-3.835,26.008h-5.387l-4.144-25.643h-.1v25.643H884.63V1443.6h7.927Z" transform="translate(-791.706 -1209.101)" fill="#fff"/>
      <path id="Caminho_17-2" data-name="Caminho 17" d="M996.938,1442.02c5.544,0,8.393,3.316,8.393,9.119v1.138h-5.389v-1.5c0-2.59-1.035-3.575-2.849-3.575s-2.849.986-2.849,3.575c0,2.642,1.14,4.611,4.87,7.874,4.765,4.2,6.27,7.2,6.27,11.347,0,5.8-2.9,9.117-8.5,9.117s-8.5-3.313-8.5-9.117v-2.228h5.387v2.59c0,2.59,1.14,3.523,2.954,3.523s2.951-.933,2.951-3.523c0-2.642-1.138-4.611-4.867-7.874-4.768-4.2-6.27-7.2-6.27-11.344C988.545,1445.336,991.394,1442.02,996.938,1442.02Z" transform="translate(-868.268 -1207.936)" fill="#fff"/>
      <path id="Caminho_18-2" data-name="Caminho 18" d="M748.987,956.9h-.128v34.587H742.67V943.74H751.3l6.941,28.584h.126V943.74H764.5v47.751H757.43Z" transform="translate(-686.956 -840.265)" fill="#fff"/>
      <path id="Caminho_19-2" data-name="Caminho 19" d="M845.461,978.968c0,3.408,1.376,4.705,3.565,4.705s3.565-1.3,3.565-4.705v-25.79c0-3.408-1.376-4.705-3.565-4.705s-3.565,1.3-3.565,4.705Zm-6.881-25.31c0-7.641,3.693-12.008,10.445-12.008s10.443,4.367,10.443,12.008v24.831c0,7.641-3.688,12.008-10.443,12.008s-10.445-4.367-10.445-12.008Z" transform="translate(-757.726 -838.723)" fill="#fff"/>
      <path id="Caminho_20-2" data-name="Caminho 20" d="M938.041,950.56v14.668h2.687c2.564,0,4.128-1.229,4.128-5.049v-4.708c0-3.41-1.064-4.912-3.5-4.912Zm7.5,40.93c-.375-1.227-.627-1.976-.627-5.866v-7.5c0-4.435-1.373-6.073-4.5-6.073h-2.375v19.442H931.16V943.74h10.383c7.13,0,10.191,3.615,10.191,10.98v3.754c0,4.912-1.436,8.05-4.5,9.62v.136c3.439,1.568,4.566,5.117,4.566,10.1v7.366a15.2,15.2,0,0,0,.752,5.8Z" transform="translate(-826.039 -840.265)" fill="#fff"/>
      <path id="Caminho_21-2" data-name="Caminho 21" d="M1015.39,943.74h21.263v6.82h-7.193v40.93h-6.878V950.56h-7.193Z" transform="translate(-888.191 -840.265)" fill="#fff"/>
      <path id="Caminho_22-2" data-name="Caminho 22" d="M1110.791,963.863h9.442v6.823h-9.442V984.67h11.882v6.82H1103.91V943.74h18.763v6.82h-11.882Z" transform="translate(-953.508 -840.265)" fill="#fff"/>
    </g>
  </g>
</svg>
